{"title":"Worry Dolls 2016 Movies HDRip XviD AAC New Source +Sample ☻rDX☻","uid":15125254,"size":738268786,"categoryP":"video","categoryS":"movies","magnet":"?xt=urn:btih:76e7532f4d5152d4feff5f43e108e77d2710362d&amp;dn=Worry+Dolls+2016+Movies+HDRip+XviD+AAC+New+Source+%2BSample+%E2%98%BBrDX%E2%98%BB&amp;tr=udp%3A%2F%2Ftracker.leechers-paradise.org%3A6969&amp;tr=udp%3A%2F%2Fzer0day.ch%3A1337&amp;tr=udp%3A%2F%2Fopen.demonii.com%3A1337&amp;tr=udp%3A%2F%2Ftracker.coppersurfer.tk%3A6969&amp;tr=udp%3A%2F%2Fexodus.desync.com%3A6969","seeders":0,"leechers":1,"uploader":"basicssom","files":2,"time":1467107401,"description":"----------------------------------------------------------------\r\nWorry Dolls 2016 English Movies HDRip XviD AAC New Source with Sample ☻rDX☻\r\n\r\nSCREEN SHOTS &amp; POSTER:\r\n  \nhttp://mobileshosting.com/2016/7/bike/index.htm  \nhttp://mobileshosting.com/2016/7/bike/1.html  \nhttp://mobileshosting.com/2016/7/bike/2.html  \nhttp://mobileshosting.com/2016/7/bike/3.html  \nhttp://mobileshosting.com/2016/7/bike/4.html  \nhttp://mobileshosting.com/2016/7/bike/5.html  \nhttp://mobileshosting.com/2016/7/bike/6.html  \nhttp://mobileshosting.com/2016/7/bike/7.html  \nhttp://mobileshosting.com/2016/7/bike/8.html  \nhttp://mobileshosting.com/2016/7/bike/9.html  \nhttp://mobileshosting.com/2016/7/bike/10.html\r\n\r\nFormat                                   : Matroska\r\nFormat version                           : Version 4 / Version 2\r\nFile size                                : 694 MiB\r\nDuration                                 : 1h 25mn\r\nOverall bit rate                         : 1 135 Kbps\r\nMovie name                               : Worry Dolls 2016 English Movies HDRip XviD AAC New Source ☻rDX☻\r\n\r\nVideo\r\nID                                       : 1\r\nFormat                                   : MPEG-4 Visual\r\nFormat profile                           : Advanced   \r\nFormat settings, BVOP                    : Yes\r\nFormat settings, QPel                    : No\r\nFormat settings, GMC                     : No warppoints\r\nFormat settings, Matrix                  : Default (H.263)\r\nCodec ID                                 : V_MS/VFW/FOURCC / XVID\r\nCodec ID/Hint                            : XviD\r\nDuration                                 : 1h 25mn\r\nBit rate                                 : 985 Kbps\r\nWidth                                    : 640 pixels\r\nHeight                                   : 272 pixels\r\nDisplay aspect ratio                     : 2.35:1\r\nFrame rate mode                          : Constant\r\nFrame rate                               : 23.976 fps\r\nColor space                              : YUV\r\nChroma subsampling                       : 4:2:0\r\nBit depth                                : 8 bits\r\nScan type                                : Progressive\r\nCompression mode                         : Lossy\r\nBits/(Pixel*Frame)                       : 0.236\r\nStream size                              : 602 MiB (87%)\r\nTitle                                    : ☻rDX☻\r\nWriting library                          : XviD 65\r\nDefault                                  : Yes\r\nForced                                   : No\r\n\r\nAudio\r\nID                                       : 2\r\nFormat                                   : MPEG Audio\r\nFormat version                           : Version 1\r\nFormat profile                           : Layer 3\r\nMode                                     : Joint stereo\r\nMode extension                           : MS Stereo\r\nCodec ID                                 : A_MPEG/L3\r\nCodec ID/Hint                            : MP3\r\nDuration                                 : 1h 25mn\r\nBit rate mode                            : Constant\r\nBit rate                                 : 128 Kbps\r\nChannel(s)                               : 2 channels\r\nSampling rate                            : 48.0 KHz\r\nCompression mode                         : Lossy\r\nStream size                              : 78.2 MiB (11%)\r\nTitle                                    : ☻rDX☻\r\nWriting library                          : LAME3.99r\r\nEncoding settings                        : -m j -V 4 -q 3 -lowpass 17 -b 128\r\nDefault                                  : Yes\r\nForced                                   : No\r\n\r\nIMDB \nhttp://www.imdb.com/title/tt3384350/","torrent":{"xt":"urn:btih:76e7532f4d5152d4feff5f43e108e77d2710362d","amp;dn":"Worry+Dolls+2016+Movies+HDRip+XviD+AAC+New+Source+%2BSample+%E2%98%BBrDX%E2%98%BB","amp;tr":["udp%3A%2F%2Ftracker.leechers-paradise.org%3A6969","udp%3A%2F%2Fzer0day.ch%3A1337","udp%3A%2F%2Fopen.demonii.com%3A1337","udp%3A%2F%2Ftracker.coppersurfer.tk%3A6969","udp%3A%2F%2Fexodus.desync.com%3A6969"],"infoHash":"76e7532f4d5152d4feff5f43e108e77d2710362d","infoHashBuffer":{"type":"Buffer","data":[118,231,83,47,77,81,82,212,254,255,95,67,225,8,231,125,39,16,54,45]},"announce":[],"urlList":[]}}